<svg xmlns="http://www.w3.org/2000/svg" width="15" height="11.25" viewBox="0 0 15 11.25">
  <g id="mail" transform="translate(0 -64)">
    <g id="Group_8733" data-name="Group 8733" transform="translate(0 64)">
      <g id="Group_8732" data-name="Group 8732" transform="translate(0 0)">
        <path id="Path_15842" data-name="Path 15842" d="M7.024,64.913c2.059,1.743,5.671,4.811,6.733,5.767a.627.627,0,0,0,.907,0c1.063-.957,4.675-4.025,6.734-5.768a.312.312,0,0,0,.044-.431A1.241,1.241,0,0,0,20.461,64H7.961a1.241,1.241,0,0,0-.981.482A.312.312,0,0,0,7.024,64.913Z" transform="translate(-6.711 -64)" fill="#fff"/>
        <path id="Path_15843" data-name="Path 15843" d="M343.25,126.441a.311.311,0,0,0-.333.045c-1.348,1.143-3.125,2.653-4.464,3.805a.312.312,0,0,0,.009.481c1.245,1,3.121,2.368,4.475,3.343a.313.313,0,0,0,.5-.254v-7.137A.312.312,0,0,0,343.25,126.441Z" transform="translate(-328.431 -124.583)" fill="#fff"/>
        <path id="Path_15844" data-name="Path 15844" d="M.495,134.124c1.355-.975,3.231-2.346,4.476-3.343a.312.312,0,0,0,.009-.481c-1.34-1.152-3.116-2.662-4.465-3.805a.313.313,0,0,0-.515.238v7.137a.312.312,0,0,0,.495.254Z" transform="translate(0 -124.592)" fill="#fff"/>
        <path id="Path_15845" data-name="Path 15845" d="M22.988,288.534c-1.308-.936-3.718-2.681-5.157-3.849a.313.313,0,0,0-.4.007c-.282.246-.518.454-.686.6a1.265,1.265,0,0,1-1.744,0c-.167-.15-.4-.359-.685-.6a.311.311,0,0,0-.4-.007c-1.434,1.164-3.846,2.911-5.157,3.849a.312.312,0,0,0-.047.467,1.252,1.252,0,0,0,.914.4h12.5a1.254,1.254,0,0,0,.914-.4.313.313,0,0,0-.047-.467Z" transform="translate(-8.371 -278.152)" fill="#fff"/>
      </g>
    </g>
  </g>
</svg>
