<svg width="19" height="19" viewBox="0 0 19 19" fill="none" xmlns="http://www.w3.org/2000/svg">
<path d="M14.8363 12.1823C15.1476 12.3013 15.2674 12.7651 15.2912 12.9674C15.3392 13.3364 15.2317 13.4792 15.1119 13.4792C14.9922 13.4792 14.8244 13.3364 14.6452 13.0509C14.4655 12.7651 14.3938 12.4441 14.4897 12.2773C14.5492 12.1701 14.6805 12.1227 14.8363 12.1823ZM13.0177 13.5269C13.2092 13.5269 13.4246 13.6101 13.6161 13.7765C13.9869 14.086 14.0947 14.4429 13.9032 14.7047C13.7954 14.8356 13.6161 14.9188 13.4127 14.9188C13.2092 14.9188 12.9939 14.8474 12.8503 14.7165C12.5152 14.431 12.4196 13.9547 12.6346 13.6933C12.7187 13.586 12.8503 13.5269 13.0177 13.5269ZM8.8299 16.9653C4.28248 16.9653 0.597168 13.3005 0.597168 8.77934C0.597168 4.25813 4.28286 0.59375 8.82953 0.59375C13.3766 0.59375 17.0623 4.2585 17.0623 8.77934C17.0623 10.314 16.6316 11.754 15.9019 12.9796C15.8777 13.0151 15.8178 13.0032 15.8059 12.9555C15.5188 10.9449 14.2863 9.83808 12.4914 9.50526C12.3356 9.48122 12.3118 9.38618 12.5152 9.36251C13.0657 9.31481 13.8433 9.32664 14.2502 9.39802C14.274 9.19573 14.2863 8.98162 14.2863 8.7675C14.2863 5.78097 11.845 3.35359 8.84143 3.35359C5.83821 3.35359 3.39695 5.78097 3.39695 8.7675C3.39695 11.754 5.83821 14.1814 8.8418 14.1814H9.09285C9.00756 13.6984 8.97143 13.208 8.98499 12.7177C8.99726 12.3845 9.06904 12.3368 9.2126 12.5987C9.96648 13.8956 11.0435 15.0615 13.1493 15.5256C14.8724 15.9065 16.5955 16.3466 18.4503 18.6904C18.6176 18.8927 18.3666 19.1068 18.175 18.9404C16.2846 17.2744 14.5615 16.7271 12.9939 16.7271C11.2347 16.7393 10.0386 16.9653 8.8299 16.9653Z" fill="#FF8C00"/>
</svg>
