<svg width="7026" height="1481" viewBox="0 0 7026 1481" fill="none" xmlns="http://www.w3.org/2000/svg">
<path fill-rule="evenodd" clip-rule="evenodd" d="M1105.26 1136.08C1150.11 1122.37 1189.67 1096.35 1218.98 1061.28C1260.12 1013.05 1279.46 951.276 1272.75 889.505C1266.03 827.734 1233.82 771.018 1183.17 731.802L284.103 37.2989C260.868 18.9488 232.908 6.81571 203.102 2.14859C173.295 -2.51852 142.719 0.448978 114.52 10.7456C96.2565 17.0462 79.1332 26.004 63.7625 37.2989C37.7912 57.6244 18.5304 84.6313 8.28397 115.089C8.28397 121.447 4.74276 127.804 3.16891 134.91C-3.18817 168.907 1.76309 203.942 17.3336 235.139C80.6814 373.89 226.657 495.063 267.577 710.481C308.497 925.901 180.621 1159.27 188.884 1296.15C189.037 1304.26 190.361 1312.31 192.819 1320.09C200.303 1343.78 217.288 1363.72 240.107 1375.62C262.927 1387.51 289.751 1390.4 314.793 1383.67L1105.66 1136.08H1105.26Z" fill="url(#paint0_linear_505_6)"/>
<path fill-rule="evenodd" clip-rule="evenodd" d="M1215.04 1215.37C1191.63 1235.35 1174.97 1261.48 1167.15 1290.45C1159.34 1319.42 1160.73 1349.94 1171.14 1378.16C1181.55 1406.39 1200.52 1431.05 1225.65 1449.05C1250.79 1467.04 1280.96 1477.55 1312.38 1479.27C1343.79 1480.99 1375.03 1473.83 1402.17 1458.68C1429.31 1443.55 1451.13 1421.12 1464.87 1394.22C1478.61 1367.31 1483.67 1337.14 1479.4 1307.51C1475.13 1277.88 1461.73 1250.11 1440.89 1227.71C1426.93 1212.78 1410 1200.62 1391.09 1191.91C1372.17 1183.21 1351.64 1178.14 1330.66 1176.99C1309.68 1175.85 1288.66 1178.65 1268.83 1185.23C1248.99 1191.82 1230.7 1202.06 1215.04 1215.37Z" fill="url(#paint1_linear_505_6)"/>
<path fill-rule="evenodd" clip-rule="evenodd" d="M1294.12 1179.46C1319.92 1175.21 1346.42 1177.05 1371.3 1184.82C1396.17 1192.58 1418.66 1206.04 1436.77 1224.01C1454.89 1241.98 1468.08 1263.9 1475.19 1287.86C1482.29 1311.81 1483.1 1337.05 1477.53 1361.36C1471.95 1385.68 1460.19 1408.33 1443.24 1427.3C1426.31 1446.28 1404.72 1461.01 1380.39 1470.19C1356.05 1479.37 1329.72 1482.74 1303.7 1479.97C1277.68 1477.2 1252.78 1468.41 1231.17 1454.35C1309.87 1480.16 1365.74 1446.87 1382.26 1416.95C1408.63 1367.95 1382.26 1263.24 1294.12 1180.96V1179.46Z" fill="url(#paint2_linear_505_6)"/>
<path fill-rule="evenodd" clip-rule="evenodd" d="M325.416 1275.95C554.412 888.875 646.876 785.277 679.534 797.99C712.191 810.71 664.976 954.695 735.799 996.211C753.849 1004.72 774.09 1008.11 794.113 1005.99C814.13 1003.86 833.091 996.32 848.725 984.243C868.207 967.307 881.636 945.013 887.139 920.476C892.642 895.933 889.937 870.37 879.416 847.359C845.97 772.564 742.879 793.883 682.682 735.163C634.285 688.789 607.923 588.933 694.486 357.808L283.315 41.0379C266.183 27.9084 246.732 17.7778 225.869 11.1188C181.936 -2.15289 134.257 1.69769 93.3097 21.8243C52.3623 41.9509 21.4969 76.7069 7.49664 118.454C-46.8014 292.359 209.737 413.906 266.79 716.838C306.136 933.001 179.834 1165.62 188.097 1302.51C188.416 1310.61 189.736 1318.64 192.031 1326.44C199.997 1349.89 217.307 1369.44 240.253 1380.9C263.199 1392.36 289.956 1394.84 314.792 1387.77L396.239 1362.35C388.298 1363.66 380.179 1363.66 372.238 1362.35C366.819 1361.28 361.541 1359.65 356.5 1357.48C345.273 1346.94 336.658 1334.15 331.281 1320.05C325.904 1305.95 323.901 1290.89 325.416 1275.95Z" fill="url(#paint3_linear_505_6)"/>
<path fill-rule="evenodd" clip-rule="evenodd" d="M321.875 1375.81C301.539 1372.17 283.529 1361.06 271.746 1344.89C259.964 1328.72 255.356 1308.79 258.92 1289.42C260.297 1283.18 262.547 1277.14 265.61 1271.46C472.179 912.06 754.687 613.244 213.278 191.009C188.666 166.302 158.17 147.576 124.356 136.407C106.871 133.509 88.8781 135.497 72.5596 142.13C56.2412 148.763 42.299 159.755 32.4254 173.773C22.5517 187.791 17.1712 204.232 16.9367 221.1C16.7023 237.968 21.6241 254.538 31.1048 268.8C99.961 394.834 227.837 514.511 267.183 715.343C306.53 931.513 180.228 1164.13 188.491 1301.01C188.643 1309.12 189.967 1317.18 192.425 1324.95C200.07 1348.59 217.184 1368.42 240.076 1380.17C262.967 1391.93 289.802 1394.66 314.793 1387.78L360.828 1373.56C348.166 1376.98 334.877 1377.74 321.875 1375.81Z" fill="url(#paint4_linear_505_6)"/>
<path d="M2577.11 680.893C2577.11 723.174 2572.47 760.811 2563.18 793.803C2553.89 826.475 2540.76 854.982 2523.78 879.326C2507.12 903.67 2486.94 924.33 2463.24 941.307C2439.86 958.283 2413.75 971.896 2384.92 982.146C2356.1 992.396 2325.03 999.924 2291.71 1004.73C2258.4 1009.21 2223.65 1011.46 2187.45 1011.46H1768.48V351.291H2186.49C2222.69 351.291 2257.44 353.693 2290.75 358.498C2324.06 362.982 2355.13 370.35 2383.96 380.6C2413.11 390.85 2439.54 404.463 2463.24 421.439C2486.94 438.096 2507.12 458.756 2523.78 483.42C2540.76 507.764 2553.89 536.271 2563.18 568.943C2572.47 601.615 2577.11 638.932 2577.11 680.893ZM2397.42 680.893C2397.42 649.182 2393.25 621.635 2384.92 598.252C2376.92 574.869 2363.78 555.65 2345.53 540.596C2327.59 525.221 2304.04 513.85 2274.9 506.482C2245.75 498.795 2210.19 494.951 2168.23 494.951H1946.74V867.795H2168.23C2210.19 867.795 2245.75 864.111 2274.9 856.744C2304.04 849.057 2327.59 837.525 2345.53 822.15C2363.78 806.455 2376.92 786.916 2384.92 763.533C2393.25 740.15 2397.42 712.604 2397.42 680.893ZM2739.99 1011.46V351.291H3408.32V492.068H2923.05V601.135H3383.34V741.912H2923.05V870.678H3415.05V1011.46H2739.99ZM3587.54 1011.46V351.291H3765.79V866.834H4247.7V1011.46H3587.54ZM4698.38 494.951V1011.46H4520.13V494.951H4240.01V351.291H4978.97V494.951H4698.38ZM5941.83 681.854C5941.83 738.549 5931.42 788.678 5910.6 832.24C5889.78 875.482 5859.99 911.678 5821.24 940.826C5782.48 969.975 5735.39 992.076 5679.98 1007.13C5624.88 1021.87 5562.9 1029.23 5494.04 1029.23C5425.17 1029.23 5362.87 1021.87 5307.13 1007.13C5251.72 992.076 5204.47 969.975 5165.4 940.826C5126.32 911.678 5096.21 875.482 5075.07 832.24C5053.93 788.678 5043.36 738.549 5043.36 681.854C5043.36 625.158 5053.93 575.189 5075.07 531.947C5096.21 488.385 5126.32 452.029 5165.4 422.881C5204.47 393.732 5251.72 371.791 5307.13 357.057C5362.87 342.002 5425.17 334.475 5494.04 334.475C5562.9 334.475 5624.88 342.002 5679.98 357.057C5735.39 371.791 5782.48 393.732 5821.24 422.881C5859.99 452.029 5889.78 488.385 5910.6 531.947C5931.42 575.189 5941.83 625.158 5941.83 681.854ZM5761.66 681.854C5761.66 657.189 5757.65 632.686 5749.65 608.342C5741.96 583.678 5728.03 561.576 5707.85 542.037C5687.99 522.498 5660.76 506.643 5626.17 494.471C5591.57 482.299 5547.53 476.213 5494.04 476.213C5458.16 476.213 5426.61 479.096 5399.38 484.861C5372.16 490.307 5348.62 497.994 5328.76 507.924C5308.9 517.854 5292.24 529.545 5278.79 542.998C5265.33 556.131 5254.6 570.385 5246.6 585.76C5238.59 600.814 5232.82 616.67 5229.3 633.326C5226.1 649.662 5224.49 665.838 5224.49 681.854C5224.49 698.189 5226.1 714.686 5229.3 731.342C5232.82 747.998 5238.59 764.014 5246.6 779.389C5254.6 794.443 5265.33 808.537 5278.79 821.67C5292.24 834.803 5308.9 846.334 5328.76 856.264C5348.62 865.873 5372.16 873.561 5399.38 879.326C5426.61 884.771 5458.16 887.494 5494.04 887.494C5547.53 887.494 5591.57 881.408 5626.17 869.236C5660.76 857.064 5687.99 841.209 5707.85 821.67C5728.03 802.131 5741.96 780.189 5749.65 755.846C5757.65 731.182 5761.66 706.518 5761.66 681.854ZM6727.88 1011.46L6282.49 557.893V1011.46H6104.23V351.291H6297.86L6743.74 806.775V351.291H6921.03V1011.46H6727.88Z" fill="#1B1815"/>
<defs>
<linearGradient id="paint0_linear_505_6" x1="752.28" y1="1188.67" x2="604.071" y2="474.087" gradientUnits="userSpaceOnUse">
<stop stop-color="#5F6DED"/>
<stop offset="1" stop-color="#4957D9"/>
</linearGradient>
<linearGradient id="paint1_linear_505_6" x1="1376.87" y1="1409.39" x2="1301.59" y2="1205.96" gradientUnits="userSpaceOnUse">
<stop stop-color="#5F6EED"/>
<stop offset="1" stop-color="#4845D4"/>
</linearGradient>
<linearGradient id="paint2_linear_505_6" x1="1393.95" y1="1409.06" x2="1316.44" y2="1225" gradientUnits="userSpaceOnUse">
<stop stop-color="#578BE5"/>
<stop offset="1" stop-color="#435AD3"/>
</linearGradient>
<linearGradient id="paint3_linear_505_6" x1="513.015" y1="1257.16" x2="413.573" y2="92.8859" gradientUnits="userSpaceOnUse">
<stop stop-color="#5788E6"/>
<stop offset="1" stop-color="#3F6BDD"/>
</linearGradient>
<linearGradient id="paint4_linear_505_6" x1="255.509" y1="291.994" x2="352.213" y2="1271.42" gradientUnits="userSpaceOnUse">
<stop stop-color="#4452CF"/>
<stop offset="1" stop-color="#0B4FD3"/>
</linearGradient>
</defs>
</svg>
