<?xml version="1.0" encoding="utf-8"?>
<!-- Generator: Adobe Illustrator 24.0.0, SVG Export Plug-In . SVG Version: 6.00 Build 0)  -->
<svg version="1.1" id="Layer_1" xmlns="http://www.w3.org/2000/svg" xmlns:xlink="http://www.w3.org/1999/xlink" x="0px" y="0px"
	 viewBox="0 0 20 20" style="enable-background:new 0 0 20 20;" xml:space="preserve">
<style type="text/css">
	.st0{fill:#1729D8;}
	.st1{fill:#FFFFFF;}
</style>
<g>
	<path id="bg" class="st0" d="M10,0L10,0c5.52,0,10,4.48,10,10l0,0c0,5.52-4.48,10-10,10l0,0C4.48,20,0,15.52,0,10l0,0
		C0,4.48,4.48,0,10,0z"/>
	<polygon class="st1" points="14.32,9.21 10.79,9.21 10.79,5.68 9.21,5.68 9.21,9.21 5.68,9.21 5.68,10.79 9.21,10.79 9.21,14.32 
		10.79,14.32 10.79,10.79 14.32,10.79 	"/>
</g>
</svg>