<svg width="16" height="16" viewBox="0 0 16 16" fill="none" xmlns="http://www.w3.org/2000/svg">
<path d="M15.762 9.78352C14.71 14.0033 10.436 16.5715 6.21569 15.5192C1.99711 14.4671 -0.57102 10.1929 0.481534 5.97331C1.5331 1.753 5.80708 -0.815369 10.0262 0.236693C14.2462 1.28875 16.8141 5.56346 15.762 9.78352Z" fill="#F7931A"/>
<path d="M11.5947 6.75619C11.7515 5.70807 10.9534 5.14462 9.86224 4.76874L10.2162 3.34893L9.35197 3.13354L9.00735 4.51594C8.78015 4.45933 8.54679 4.40591 8.31492 4.35299L8.662 2.96148L7.79824 2.74609L7.44403 4.16541C7.25597 4.12258 7.07135 4.08025 6.89215 4.0357L6.89313 4.03126L5.70126 3.73366L5.47136 4.65674C5.47136 4.65674 6.11258 4.80369 6.09905 4.8128C6.44908 4.90018 6.51233 5.13181 6.50175 5.31544L6.09855 6.93292C6.12267 6.93908 6.15394 6.94794 6.1884 6.96173C6.1596 6.95459 6.12883 6.94671 6.09708 6.93908L5.5319 9.20493C5.48907 9.31127 5.38052 9.47077 5.13585 9.41022C5.14446 9.42277 4.50766 9.25342 4.50766 9.25342L4.07861 10.2427L5.20329 10.5231C5.41252 10.5755 5.61756 10.6304 5.81941 10.6821L5.46176 12.1182L6.32501 12.3335L6.67923 10.9127C6.91504 10.9767 7.14397 11.0358 7.36797 11.0915L7.01499 12.5056L7.87923 12.721L8.23689 11.2876C9.71061 11.5665 10.8188 11.454 11.2853 10.1211C11.6611 9.04788 11.2665 8.4288 10.4912 8.02511C11.0558 7.8949 11.4812 7.52345 11.5947 6.75619ZM9.62003 9.52517C9.35295 10.5984 7.54593 10.0182 6.96009 9.87274L7.43467 7.97021C8.02052 8.11643 9.89916 8.40591 9.62003 9.52517ZM9.88735 6.74068C9.64366 7.71692 8.13966 7.22092 7.65178 7.09932L8.08206 5.37379C8.56994 5.49539 10.1411 5.72234 9.88735 6.74068Z" fill="white"/>
</svg>
